<svg width="24" height="24" viewBox="0 0 24 24" fill="none" xmlns="http://www.w3.org/2000/svg">
<g id="logoipsum-298 1" clip-path="url(#clip0_14_109)">
<path id="Vector" fill-rule="evenodd" clip-rule="evenodd" d="M8.22876 0.302116C6.87492 0.302116 5.57658 0.826801 4.61929 1.76075L0 6.26734V8.33017C0 9.78755 0.641664 11.0987 1.66441 12.0094C0.641664 12.9201 0 14.2313 0 15.6887V17.7515L4.61929 22.2581C5.57658 23.1921 6.87492 23.7167 8.22876 23.7167C9.72258 23.7167 11.0665 23.0908 12 22.0929C12.9335 23.0908 14.2774 23.7167 15.7712 23.7167C17.1251 23.7167 18.4234 23.1921 19.3807 22.2581L24 17.7515V15.6887C24 14.2313 23.3584 12.9201 22.3356 12.0094C23.3584 11.0987 24 9.78755 24 8.33017V6.26734L19.3807 1.76075C18.4234 0.826801 17.1251 0.302116 15.7712 0.302116C14.2774 0.302116 12.9335 0.928128 12 1.92593C11.0665 0.928128 9.72258 0.302116 8.22876 0.302116ZM15.4553 12.0094C15.3977 11.9582 15.3413 11.9056 15.286 11.8516L12 8.6458L8.71404 11.8516C8.65872 11.9056 8.60226 11.9582 8.54472 12.0094C8.60226 12.0606 8.65872 12.1133 8.71404 12.1672L12 15.3731L15.286 12.1672C15.3413 12.1133 15.3977 12.0606 15.4553 12.0094ZM13.3333 17.7515V18.7367C13.3333 20.0502 14.4248 21.1151 15.7712 21.1151C16.4178 21.1151 17.0379 20.8645 17.4951 20.4185L21.3334 16.6739V15.6887C21.3334 14.3751 20.2418 13.3102 18.8954 13.3102C18.2489 13.3102 17.6288 13.5608 17.1716 14.0069L13.3333 17.7515ZM10.6667 17.7515L6.82842 14.0069C6.37122 13.5608 5.75114 13.3102 5.10457 13.3102C3.75815 13.3102 2.66666 14.3751 2.66666 15.6887V16.6739L6.5049 20.4185C6.9621 20.8645 7.5822 21.1151 8.22876 21.1151C9.57516 21.1151 10.6667 20.0502 10.6667 18.7367V17.7515ZM10.6667 5.28218V6.26734L6.82842 10.012C6.37122 10.458 5.75114 10.7086 5.10457 10.7086C3.75815 10.7086 2.66666 9.64373 2.66666 8.33017V7.345L6.5049 3.60037C6.9621 3.15433 7.5822 2.90374 8.22876 2.90374C9.57516 2.90374 10.6667 3.96861 10.6667 5.28218ZM17.1716 10.012L13.3333 6.26734V5.28218C13.3333 3.96861 14.4248 2.90374 15.7712 2.90374C16.4178 2.90374 17.0379 3.15433 17.4951 3.60037L21.3334 7.345V8.33017C21.3334 9.64373 20.2418 10.7086 18.8954 10.7086C18.2489 10.7086 17.6288 10.458 17.1716 10.012Z" fill="#FBFADA"/>
</g>
<defs>
<clipPath id="clip0_14_109">
<rect width="24" height="24" fill="white"/>
</clipPath>
</defs>
</svg>
